<?xml version="1.0" standalone="no"?>
<!DOCTYPE svg PUBLIC "-//W3C//DTD SVG 20010904//EN"
 "http://www.w3.org/TR/2001/REC-SVG-20010904/DTD/svg10.dtd">
<svg version="1.0" xmlns="http://www.w3.org/2000/svg"
 width="576.000000pt" height="112.000000pt" viewBox="0 0 576.000000 112.000000"
 preserveAspectRatio="xMidYMid meet">

<g transform="translate(0.000000,112.000000) scale(0.100000,-0.100000)"
fill="#000000" stroke="none">
<path d="M1623 1083 c-25 -9 -12 -23 32 -34 l45 -11 0 -303 c0 -167 -3 -310
-6 -319 -4 -9 -18 -16 -34 -16 -34 0 -61 -26 -36 -36 9 -3 123 -5 254 -2 l237
4 67 31 c81 38 142 97 176 172 23 49 27 69 27 156 0 87 -3 107 -26 155 -32 67
-84 119 -161 161 -49 25 -77 33 -156 40 -103 9 -399 11 -419 2z m427 -64 c122
-52 192 -202 168 -357 -24 -158 -152 -278 -276 -259 -71 12 -72 15 -72 326 0
152 3 287 7 300 6 22 9 23 65 17 32 -3 81 -15 108 -27z"/>
<path d="M4121 1081 c-19 -12 -5 -31 24 -31 45 0 50 -27 53 -280 4 -250 -3
-359 -21 -365 -7 -2 -24 -6 -39 -9 -16 -4 -28 -13 -28 -22 0 -14 26 -16 243
-12 271 4 294 9 345 76 24 31 27 44 27 113 0 97 -15 121 -110 168 l-68 34 35
18 c50 26 97 78 104 116 15 80 -13 135 -91 176 -37 20 -57 22 -250 25 -115 1
-216 -2 -224 -7z m331 -41 c55 -16 78 -51 78 -119 0 -93 -46 -145 -135 -153
l-40 -3 -3 123 c-1 73 2 130 8 142 12 22 37 25 92 10z m33 -338 c69 -41 101
-138 70 -217 -47 -125 -183 -127 -199 -4 -3 24 -7 91 -9 148 l-4 103 56 -6
c30 -4 69 -15 86 -24z"/>
<path d="M341 1009 c-70 -14 -71 -16 -152 -226 l-8 -23 -37 25 c-20 14 -46 25
-58 25 -29 0 -66 -27 -66 -49 0 -29 22 -41 78 -41 l54 0 -45 -50 c-50 -55 -57
-79 -57 -191 l0 -79 611 0 612 0 -7 82 c-8 94 -31 154 -81 209 -40 44 -44 54
-16 39 33 -17 99 -12 121 10 24 24 17 44 -21 60 -36 15 -74 6 -104 -24 l-24
-24 -43 104 c-62 150 -57 146 -174 155 -130 10 -527 9 -583 -2z m634 -65 l50
-6 47 -104 47 -104 -398 0 c-219 0 -425 3 -459 6 l-61 7 39 76 c51 100 60 111
100 121 41 9 562 13 635 4z m-637 -380 c26 -18 29 -56 6 -78 -12 -12 -37 -16
-109 -16 -83 0 -96 2 -105 19 -15 30 -12 69 8 80 28 17 174 14 200 -5z m856
-22 c15 -53 -7 -66 -113 -70 -83 -4 -90 -2 -105 19 -9 13 -16 33 -16 44 0 39
19 46 124 43 l100 -3 10 -33z"/>
<path d="M2916 987 c-14 -15 -26 -30 -26 -35 0 -21 37 -52 67 -58 26 -5 37 -1
57 19 43 43 27 83 -36 93 -30 5 -41 2 -62 -19z"/>
<path d="M2706 769 c-36 -32 -47 -37 -51 -25 -3 9 -7 23 -10 31 -7 22 -47 18
-112 -10 -31 -14 -59 -28 -61 -30 -3 -2 9 -20 27 -40 30 -35 31 -37 31 -140 0
-115 -9 -150 -39 -158 -12 -3 -21 -12 -21 -21 0 -14 18 -16 133 -16 74 0 137
3 140 7 10 10 -13 33 -34 33 -10 0 -23 9 -29 19 -15 29 -13 243 3 263 7 10 33
18 67 21 30 3 66 8 80 12 18 5 33 1 50 -13 22 -18 24 -26 28 -161 l5 -141 -24
0 c-34 0 -57 -16 -43 -30 14 -14 259 -9 259 5 0 6 -13 16 -28 23 -22 11 -27
20 -28 50 -3 140 -15 342 -21 347 -4 4 -42 -5 -85 -19 -43 -14 -83 -26 -88
-26 -6 0 -18 14 -27 30 -25 44 -63 41 -122 -11z"/>
<path d="M3143 793 c-40 -5 -41 -17 -6 -47 15 -13 66 -102 117 -207 58 -117
96 -184 106 -184 9 0 51 69 110 185 80 156 101 189 133 209 45 30 38 40 -34
48 -88 9 -159 -19 -107 -42 18 -8 22 -17 19 -40 -4 -42 -65 -190 -77 -189 -9
2 -57 110 -73 169 -8 28 -6 39 10 59 12 15 15 27 9 31 -13 8 -166 14 -207 8z"/>
<path d="M3780 784 c-41 -18 -96 -68 -116 -106 -9 -17 -14 -58 -14 -111 0 -77
3 -87 29 -123 42 -58 66 -76 122 -90 89 -23 210 23 241 91 17 38 2 42 -52 12
-54 -30 -85 -33 -133 -13 -38 15 -60 46 -76 101 -16 60 -6 65 120 65 121 0
146 11 134 59 -26 106 -149 161 -255 115z m104 -46 c9 -12 16 -35 16 -50 0
-31 -24 -42 -81 -36 -31 3 -34 6 -32 32 2 33 38 76 64 76 10 0 25 -10 33 -22z"/>
<path d="M4946 782 c-56 -18 -126 -79 -126 -108 0 -27 19 -44 50 -44 34 0 50
17 50 52 0 38 40 79 69 71 41 -10 63 -70 45 -117 -3 -9 -42 -35 -85 -57 -44
-23 -88 -53 -99 -67 -24 -30 -26 -91 -4 -134 15 -29 18 -30 68 -26 29 2 72 14
95 26 l42 22 35 -26 c28 -22 41 -26 75 -21 42 5 89 40 89 64 0 16 -22 17 -36
3 -25 -25 -36 20 -41 172 -6 150 -7 153 -34 180 -24 24 -35 28 -86 27 -32 0
-80 -8 -107 -17z m94 -241 c0 -58 -13 -120 -26 -125 -22 -9 -41 3 -54 34 -13
31 2 72 41 111 24 24 39 17 39 -20z"/>
<path d="M5253 790 c-28 -12 -29 -26 -3 -40 27 -14 61 -85 130 -265 l58 -150
-34 -66 c-35 -70 -46 -79 -99 -79 -60 0 -89 -62 -43 -94 26 -19 64 -12 97 18
13 11 86 148 163 303 77 154 155 300 175 323 19 22 32 44 29 48 -9 9 -113 8
-148 -1 -34 -9 -35 -19 -5 -32 15 -7 21 -18 19 -35 -3 -33 -73 -220 -82 -220
-4 0 -12 17 -18 38 -54 199 -57 222 -26 222 25 0 15 18 -13 24 -61 11 -179 15
-200 6z"/>
<path d="M68 363 c-34 -5 -35 -10 -3 -53 14 -19 25 -47 25 -62 0 -16 6 -44 14
-62 11 -26 21 -35 49 -40 70 -13 127 16 127 66 l0 28 283 0 c156 0 325 -3 376
-7 l92 -6 14 -33 c11 -26 22 -35 55 -44 73 -20 116 7 126 79 3 25 17 60 30 78
13 17 24 36 24 41 0 5 -21 12 -46 16 -50 6 -1121 6 -1166 -1z"/>
<path d="M5514 39 c-10 -17 13 -36 27 -22 12 12 4 33 -11 33 -5 0 -12 -5 -16
-11z"/>
</g>
</svg>
