<?xml version="1.0" standalone="no"?>
<!DOCTYPE svg PUBLIC "-//W3C//DTD SVG 20010904//EN"
 "http://www.w3.org/TR/2001/REC-SVG-20010904/DTD/svg10.dtd">
<svg version="1.0" xmlns="http://www.w3.org/2000/svg"
 width="431.000000pt" height="71.000000pt" viewBox="0 0 431.000000 71.000000"
 preserveAspectRatio="xMidYMid meet">

<g transform="translate(0.000000,71.000000) scale(0.100000,-0.100000)"
fill="#000000" stroke="none">
<path d="M300 681 c-36 -4 -73 -11 -82 -15 -9 -4 -31 -44 -49 -89 -18 -45 -34
-84 -35 -86 -2 -2 -11 4 -20 13 -11 12 -29 16 -58 14 -36 -3 -41 -6 -41 -28 0
-24 3 -25 57 -25 l58 0 -45 -41 -45 -41 0 -81 0 -82 455 0 455 0 0 48 c-1 77
-16 122 -55 162 l-36 37 54 -5 c43 -3 55 -1 60 12 12 31 -3 46 -49 46 -34 0
-46 -4 -55 -22 -11 -21 -15 -16 -45 62 -47 123 -42 121 -270 125 -104 2 -218
0 -254 -4z m463 -60 c4 -4 23 -40 42 -79 l34 -72 -344 0 -345 0 26 58 c44 100
45 101 126 105 105 6 452 -3 461 -12z m-512 -271 c10 -6 19 -21 19 -33 0 -43
-12 -48 -96 -45 -78 3 -79 3 -82 31 -5 44 13 57 80 57 33 0 68 -5 79 -10z
m642 -11 c5 -9 7 -28 3 -43 -7 -27 -7 -27 -89 -24 l-82 3 -3 34 c-5 45 9 52
92 49 50 -2 72 -7 79 -19z"/>
<path d="M3250 656 c-67 -14 -116 -43 -164 -97 -32 -35 -75 -112 -90 -161 -3
-11 -12 -15 -24 -11 -15 4 -20 14 -20 43 -1 50 -15 76 -55 100 -78 48 -217 3
-281 -89 -29 -42 -32 -51 -13 -51 9 0 12 -18 9 -70 -4 -68 -3 -71 30 -104 56
-56 128 -68 230 -40 61 18 71 27 83 83 l7 34 -33 -7 c-110 -24 -169 -16 -169
20 0 10 26 14 107 16 105 3 107 3 113 28 3 15 14 26 25 28 17 2 20 -4 21 -46
5 -137 124 -199 305 -158 41 9 80 20 88 25 7 5 22 44 32 87 23 96 23 94 4 94
-13 0 -15 7 -9 35 l6 35 -115 0 c-64 0 -118 -3 -120 -7 -2 -5 -7 -20 -11 -35
-5 -21 -3 -28 9 -28 9 0 15 -9 15 -25 0 -22 4 -25 35 -25 35 0 40 -5 29 -34
-4 -11 -19 -16 -44 -16 -44 0 -72 26 -74 70 -1 21 -6 30 -18 30 -15 0 -16 4
-6 33 28 82 87 127 167 127 50 0 91 -23 91 -50 0 -5 11 -10 25 -10 19 0 26 7
31 28 3 15 10 43 15 62 5 19 9 38 9 41 0 14 -139 60 -175 58 -5 0 -35 -6 -65
-13z m-412 -223 c2 -9 -11 -13 -48 -13 -46 0 -51 2 -40 16 16 18 81 16 88 -3z"/>
<path d="M1256 549 c-15 -63 -29 -124 -33 -136 -4 -17 -1 -23 11 -23 20 0 20
-5 -5 -112 -18 -75 -19 -92 -8 -99 35 -22 258 0 319 31 54 28 113 88 136 139
10 22 24 41 31 41 17 0 17 1 -7 -98 -29 -119 -32 -112 53 -112 l74 0 22 101
c18 78 20 103 11 109 -26 16 2 31 53 28 55 -3 54 -5 71 85 7 36 6 37 -23 37
-16 0 -41 -4 -55 -10 -17 -6 -26 -6 -26 1 0 6 -29 9 -77 7 l-76 -3 -16 -70
c-12 -50 -21 -71 -33 -73 -15 -3 -16 3 -11 46 8 68 -3 115 -34 152 -45 53 -75
63 -219 68 l-132 5 -26 -114z m237 -41 c19 -23 21 -39 8 -86 -8 -25 -7 -32 5
-32 45 0 -14 -77 -69 -90 l-37 -8 6 49 c5 40 4 49 -9 49 -14 0 -14 7 -1 63 8
34 17 68 19 76 7 18 55 6 78 -21z"/>
<path d="M2026 643 c-3 -10 -8 -35 -12 -55 l-6 -38 80 0 79 0 7 39 c3 22 9 46
12 55 5 14 -5 16 -74 16 -68 0 -81 -3 -86 -17z"/>
<path d="M3602 539 c-23 -4 -46 -10 -51 -13 -11 -7 -34 -97 -27 -104 3 -3 23
3 44 12 22 10 55 16 78 14 43 -3 53 -21 14 -26 -57 -7 -100 -23 -100 -37 0 -8
-5 -15 -10 -15 -19 0 -50 -65 -50 -106 0 -76 42 -93 205 -85 l120 6 22 95 c27
114 27 110 9 110 -11 0 -15 13 -14 50 1 35 -4 56 -17 70 -33 37 -124 49 -223
29z m100 -229 c-6 -41 -28 -58 -49 -37 -19 19 -11 44 19 57 34 13 35 13 30
-20z"/>
<path d="M2196 473 c4 -47 12 -73 24 -83 13 -11 21 -40 29 -105 6 -50 11 -93
11 -97 0 -5 35 -8 78 -8 l77 0 57 102 c36 66 53 105 46 109 -7 5 -4 18 9 40
11 19 30 51 42 72 l23 37 -79 0 -78 0 -35 -65 c-19 -36 -38 -65 -42 -65 -5 0
-8 29 -8 65 l0 65 -80 0 -81 0 7 -67z"/>
<path d="M3905 493 c11 -85 16 -103 30 -103 14 0 21 -29 31 -124 7 -67 2 -81
-64 -183 l-14 -23 80 0 80 0 96 163 c66 113 91 163 81 165 -10 2 -3 21 27 70
22 37 42 70 45 75 2 4 -31 7 -74 7 l-78 0 -35 -66 c-38 -72 -48 -68 -49 19
l-1 47 -81 0 -80 0 6 -47z"/>
<path d="M1996 498 c-6 -20 -26 -106 -26 -112 0 -3 7 -6 15 -6 19 0 19 4 -5
-104 -11 -50 -20 -92 -20 -93 0 -2 35 -3 77 -1 l76 3 22 98 c21 91 21 97 4 97
-16 0 -16 4 -3 58 7 31 13 60 14 65 0 13 -150 8 -154 -5z"/>
<path d="M30 185 c0 -8 9 -24 20 -35 11 -11 20 -33 20 -51 0 -54 15 -69 68
-69 53 0 72 12 72 47 l0 23 285 0 285 0 0 -23 c0 -35 19 -47 72 -47 54 0 68
15 68 72 0 22 7 37 20 46 11 7 20 21 20 32 0 20 -7 20 -465 20 -407 0 -465 -2
-465 -15z"/>
</g>
</svg>
